<svg width="55" height="37" viewBox="0 0 55 37" fill="none" xmlns="http://www.w3.org/2000/svg">
<path d="M55 0.0809326H0V36.6521H55V0.0809326Z" fill="#0242A4"/>
<path d="M27.4528 3.53894L28.9935 8.28141L24.959 5.35051H29.9466L25.9104 8.28141L27.4528 3.53894Z" fill="white"/>
<path d="M27.4528 28.0309L28.9935 32.7733L24.959 29.8424H29.9466L25.9104 32.7733L27.4528 28.0309Z" fill="white"/>
<path d="M15.3434 15.6944L16.8857 20.4369L12.8496 17.506H17.8372L13.8027 20.4369L15.3434 15.6944Z" fill="white"/>
<path d="M39.8961 15.6944L41.4385 20.4369L37.4023 17.506H42.3899L38.3554 20.4369L39.8961 15.6944Z" fill="white"/>
<path d="M38.0973 21.9261L39.6396 26.6686L35.6035 23.7377H40.5911L36.5566 26.6686L38.0973 21.9261Z" fill="white"/>
<path d="M33.5426 26.3828L35.085 31.1253L31.0488 28.1944H36.0364L32.0019 31.1253L33.5426 26.3828Z" fill="white"/>
<path d="M21.3629 26.3828L22.9053 31.1253L18.8691 28.1944H23.8583L19.8222 31.1253L21.3629 26.3828Z" fill="white"/>
<path d="M16.9977 21.9261L18.54 26.6686L14.5039 23.7377H19.4915L15.4569 26.6686L16.9977 21.9261Z" fill="white"/>
<path d="M16.9977 9.75162L18.54 14.4941L14.5039 11.5632H19.4915L15.4569 14.4941L16.9977 9.75162Z" fill="white"/>
<path d="M21.3629 5.29337L22.9053 10.0358L18.8691 7.10493H23.8583L19.8222 10.0358L21.3629 5.29337Z" fill="white"/>
<path d="M38.0973 9.65637L39.6396 14.3973L35.6035 11.4664H40.5911L36.5566 14.3973L38.0973 9.65637Z" fill="white"/>
<path d="M33.5426 5.10284L35.085 9.84372L31.0488 6.91283H36.0364L32.0019 9.84372L33.5426 5.10284Z" fill="white"/>
</svg>
